<svg width="0" height="0" class="hidden">
  <symbol
    fill="none"
    xmlns="http://www.w3.org/2000/svg"
    viewBox="0 0 24 24"
    id="telegram"
  >
    <g clip-path="url(#clip0_1_2)">
      <path
        d="M11.944 3.26667e-05C8.77112 0.0148396 5.73324 1.28566 3.4949 3.53449C1.25656 5.78332 -3.4549e-05 8.82711 7.12435e-10 12C7.12441e-10 15.1826 1.26428 18.2349 3.51472 20.4853C5.76516 22.7357 8.8174 24 12 24C15.1826 24 18.2348 22.7357 20.4853 20.4853C22.7357 18.2349 24 15.1826 24 12C24 8.81743 22.7357 5.76519 20.4853 3.51475C18.2348 1.26431 15.1826 3.26667e-05 12 3.26667e-05C11.9813 -1.08889e-05 11.9627 -1.08889e-05 11.944 3.26667e-05ZM16.906 7.22403C17.006 7.22203 17.227 7.24703 17.371 7.36403C17.4667 7.44713 17.5277 7.56311 17.542 7.68903C17.558 7.78203 17.578 7.99503 17.562 8.16103C17.382 10.059 16.6 14.663 16.202 16.788C16.034 17.688 15.703 17.989 15.382 18.018C14.686 18.083 14.157 17.558 13.482 17.116C12.426 16.423 11.829 15.992 10.804 15.316C9.619 14.536 10.387 14.106 11.062 13.406C11.239 13.222 14.309 10.429 14.369 10.176C14.376 10.144 14.383 10.026 14.313 9.96403C14.243 9.90203 14.139 9.92303 14.064 9.94003C13.958 9.96403 12.271 11.08 9.003 13.285C8.523 13.615 8.09 13.775 7.701 13.765C7.273 13.757 6.449 13.524 5.836 13.325C5.084 13.08 4.487 12.951 4.539 12.536C4.566 12.32 4.864 12.099 5.432 11.873C8.93 10.349 11.262 9.34403 12.43 8.85903C15.762 7.47303 16.455 7.23203 16.906 7.22403Z"
        fill="#FF5227"
      ></path>
    </g>
    <defs>
      <clipPath id="clip0_1_2">
        <rect width="24" height="24" fill="white"></rect>
      </clipPath>
    </defs>
  </symbol>
  <symbol
    version="1.1"
    xmlns="http://www.w3.org/2000/svg"
    xmlns:xlink="http://www.w3.org/1999/xlink"
    viewBox="0 0 24 24"
    id="Calling"
  >
    <title>Iconly/Two-tone/Calling</title>
    <g
      id="Iconly/Two-tone/Calling"
      stroke="#ff5227"
      stroke-width="1.5"
      fill="none"
      fill-rule="evenodd"
      stroke-linecap="round"
      stroke-linejoin="round"
    >
      <g
        id="Calling"
        transform="translate(2.000000, 2.500000)"
        stroke="#ff5227"
        stroke-width="1.5"
      >
        <path
          d="M12.353,1.95399252e-14 C16.054,0.411 18.978,3.331 19.393,7.032"
          id="Stroke-1"
          opacity="0.400000006"
        ></path>
        <path
          d="M12.353,3.543 C14.124,3.887 15.508,5.272 15.853,7.043"
          id="Stroke-3"
          opacity="0.400000006"
        ></path>
        <path
          d="M9.03152183,9.97238745 C13.0205087,13.9603606 13.9254376,9.34671782 16.46525,11.8848116 C18.9138181,14.3327574 20.322201,14.8232052 17.2188207,17.9247236 C16.8302273,18.2370218 14.3612634,21.9942591 5.68446558,13.3196663 C-2.9934057,4.64400029 0.761566311,2.17244427 1.07394391,1.78394958 C4.18376493,-1.32615434 4.66682308,0.0893829491 7.11539117,2.53732879 C9.65413011,5.07649576 5.04253498,5.9844143 9.03152183,9.97238745 Z"
          id="Stroke-5"
        ></path>
      </g>
    </g>
  </symbol>
  <symbol
    version="1.1"
    xmlns="http://www.w3.org/2000/svg"
    xmlns:xlink="http://www.w3.org/1999/xlink"
    viewBox="0 0 24 24"
    id="Location"
  >
    <title>Iconly/Two-tone/Location</title>
    <g
      id="Iconly/Two-tone/Location"
      stroke="#ff5227"
      stroke-width="1.5"
      fill="none"
      fill-rule="evenodd"
      stroke-linecap="round"
      stroke-linejoin="round"
    >
      <g
        id="Location"
        transform="translate(3.500000, 2.000000)"
        stroke="#ff5227"
        stroke-width="1.5"
      >
        <path
          d="M0.739130438,8.39130439 C0.753537867,4.15071799 4.2028919,0.72472301 8.4434783,0.739085164 C12.6840647,0.753537867 16.1100597,4.2028919 16.0956975,8.4434783 L16.0956975,8.53043483 C16.0434783,11.2869566 14.5043479,13.8347827 12.6173914,15.826087 C11.5382412,16.9467164 10.3331375,17.9388114 9.026087,18.7826088 C8.67659293,19.0849173 8.15818976,19.0849173 7.80869569,18.7826088 C5.86019813,17.5143538 4.15006533,15.9131279 2.75652175,14.052174 C1.51448066,12.4293903 0.809295599,10.4597355 0.739130438,8.41739135 L0.739130438,8.39130439 Z"
          id="Path_33958"
        ></path>
        <circle
          id="Ellipse_740"
          opacity="0.400000006"
          cx="8.41739135"
          cy="8.53913048"
          r="2.46086958"
        ></circle>
      </g>
    </g>
  </symbol>
  <symbol
    fill="none"
    xmlns="http://www.w3.org/2000/svg"
    viewBox="0 0 24 24"
    id="github"
  >
    <g clip-path="url(#clip0_1_6)">
      <path
        d="M12 0C5.37 0 0 5.50942 0 12.3047C0 17.7423 3.438 22.3535 8.205 23.9787C8.805 24.0946 9.025 23.7142 9.025 23.3871C9.025 23.0949 9.015 22.3207 9.01 21.2953C5.672 22.0377 4.968 19.6444 4.968 19.6444C4.42218.2243 3.633 17.8449 3.633 17.8449C2.546 17.082 3.717 17.0973 3.717 17.0973C4.922 17.1835 5.555 18.3647 5.555 18.3647C6.625 20.2463 8.364 19.7029 9.05 19.3881C9.158 18.5924 9.467 18.0499 9.81 17.7423C7.145 17.4347 4.344 16.3765 4.344 11.6618C4.344 10.3185 4.809 9.22133 5.579 8.36C5.444 8.04931 5.039 6.79833 5.684 5.10337C5.684 5.10337 6.689 4.77319 8.984 6.36459C9.944 6.09082 10.964 5.95546 11.984 5.94931C13.004 5.95546 14.024 6.09082 14.984 6.36459C17.264 4.77319 18.269 5.10337 18.269 5.10337C18.914 6.79833 18.509 8.04931 18.389 8.36C19.154 9.22133 19.619 10.3185 19.619 11.6618C19.619 16.3888 16.814 17.4296 14.144 17.7321C14.564 18.1012 14.954 18.8559 14.954 20.0084C14.954 21.6552 14.939 22.978 14.939 23.3779C14.939 23.7009 15.149 24.0854 15.764 23.9623C20.565 22.3484 24 17.7341 24 12.3047C24 5.50942 18.627 0 12 0Z"
        fill="#FF5227"
      ></path>
    </g>
    <defs>
      <clipPath id="clip0_1_6">
        <rect width="24" height="24" fill="white"></rect>
      </clipPath>
    </defs>
  </symbol>
  <symbol
    fill="none"
    xmlns="http://www.w3.org/2000/svg"
    viewBox="0 0 24 24"
    id="linkedin"
  >
    <g clip-path="url(#clip0_1_4)">
      <path
        d="M20.447 20.452H16.893V14.883C16.893 13.555 16.866 11.846 15.041 11.846C13.188 11.846 12.905 13.291 12.905 14.785V20.452H9.351V9H12.765V10.561H12.811C13.288 9.661 14.448 8.711 16.181 8.711C19.782 8.711 20.448 11.081 20.448 14.166L20.447 20.452ZM5.337 7.433C4.193 7.433 3.274 6.507 3.274 5.368C3.274 4.23 4.194 3.305 5.337 3.305C6.477 3.305 7.401 4.23 7.401 5.368C7.401 6.507 6.476 7.433 5.337 7.433ZM7.119 20.452H3.555V9H7.119V20.452ZM22.225 0H1.771C0.792 0 0 0.774 0 1.729V22.271C0 23.227 0.792 24 1.771 24H22.222C23.2 24 24 23.227 24 22.271V1.729C24 0.774 23.2 0 22.222 0H22.225Z"
        fill="#FF5227"
      ></path>
    </g>
    <defs>
      <clipPath id="clip0_1_4">
        <rect width="24" height="24" fill="white"></rect>
      </clipPath>
    </defs>
  </symbol>
  <symbol
    version="1.1"
    xmlns="http://www.w3.org/2000/svg"
    xmlns:xlink="http://www.w3.org/1999/xlink"
    viewBox="0 0 24 24"
    id="Message"
  >
    <title>Iconly/Two-tone/Message</title>
    <g
      id="Iconly/Two-tone/Message"
      stroke="#ff5227"
      stroke-width="1.5"
      fill="none"
      fill-rule="evenodd"
      stroke-linecap="round"
      stroke-linejoin="round"
    >
      <g
        id="Message"
        transform="translate(2.000000, 3.000000)"
        stroke="#ff5227"
        stroke-width="1.5"
      >
        <path
          d="M15.2677346,5.56112535 L11.0022884,8.99539646 C10.1950744,9.62826732 9.06350694,9.62826732 8.25629295,8.99539646 L3.95423343,5.56112535"
          id="Path_445"
          opacity="0.400000006"
        ></path>
        <path
          d="M4.88787188,4.13786652e-14 L14.3157895,4.13786652e-14 C15.6751779,0.015246851 16.9690267,0.589927916 17.8960035,1.59020219 C18.8229802,2.59047647 19.3021688,3.92902958 19.2219681,5.29411767 L19.2219681,11.8219949 C19.3021688,13.187083 18.8229802,14.5256361 17.8960035,15.5259104 C16.9690267,16.5261847 15.6751779,17.1008658 14.3157895,17.1161126 L4.88787188,17.1161126 C1.9679634,17.1161126 -2.4308041e-14,14.740665 -2.4308041e-14,11.8219949 L-2.4308041e-14,5.29411767 C-2.4308041e-14,2.37544758 1.9679634,4.13786652e-14 4.88787188,4.13786652e-14 Z"
          id="Rectangle_511"
        ></path>
      </g>
    </g>
  </symbol>
</svg>